<svg id="visual" viewBox="0 0 900 600" width="900" height="600" xmlns="http://www.w3.org/2000/svg" xmlns:xlink="http://www.w3.org/1999/xlink" version="1.1"><rect x="0" y="0" width="900" height="600" fill="#140021"></rect><path d="M635 0L803 0L803 55L696 55L696 109L698 109L698 164L659 164L659 218L779 218L779 273L791 273L791 327L748 327L748 382L668 382L668 436L632 436L632 491L810 491L810 545L676 545L676 600L0 600L0 545L0 545L0 491L0 491L0 436L0 436L0 382L0 382L0 327L0 327L0 273L0 273L0 218L0 218L0 164L0 164L0 109L0 109L0 55L0 55L0 0L0 0Z" fill="#560090"></path><path d="M623 0L488 0L488 55L569 55L569 109L463 109L463 164L521 164L521 218L491 218L491 273L529 273L529 327L480 327L480 382L550 382L550 436L500 436L500 491L592 491L592 545L461 545L461 600L0 600L0 545L0 545L0 491L0 491L0 436L0 436L0 382L0 382L0 327L0 327L0 273L0 273L0 218L0 218L0 164L0 164L0 109L0 109L0 55L0 55L0 0L0 0Z" fill="#6c00b4"></path><path d="M434 0L433 0L433 55L399 55L399 109L366 109L366 164L357 164L357 218L425 218L425 273L292 273L292 327L378 327L378 382L449 382L449 436L323 436L323 491L387 491L387 545L304 545L304 600L0 600L0 545L0 545L0 491L0 491L0 436L0 436L0 382L0 382L0 327L0 327L0 273L0 273L0 218L0 218L0 164L0 164L0 109L0 109L0 55L0 55L0 0L0 0Z" fill="#8200d9"></path><path d="M176 0L179 0L179 55L175 55L175 109L110 109L110 164L132 164L132 218L207 218L207 273L94 273L94 327L144 327L144 382L245 382L245 436L139 436L139 491L132 491L132 545L100 545L100 600L0 600L0 545L0 545L0 491L0 491L0 436L0 436L0 382L0 382L0 327L0 327L0 273L0 273L0 218L0 218L0 164L0 164L0 109L0 109L0 55L0 55L0 0L0 0Z" fill="#9900ff"></path></svg>