<svg id="visual" viewBox="0 0 900 600" width="900" height="600" xmlns="http://www.w3.org/2000/svg" xmlns:xlink="http://www.w3.org/1999/xlink" version="1.1"><path d="M0 181L82 181L82 169L164 169L164 169L245 169L245 121L327 121L327 73L409 73L409 121L491 121L491 151L573 151L573 211L655 211L655 121L736 121L736 121L818 121L818 217L900 217L900 139L900 0L900 0L818 0L818 0L736 0L736 0L655 0L655 0L573 0L573 0L491 0L491 0L409 0L409 0L327 0L327 0L245 0L245 0L164 0L164 0L82 0L82 0L0 0Z" fill="#6e3cbc"></path><path d="M0 313L82 313L82 331L164 331L164 361L245 361L245 307L327 307L327 289L409 289L409 343L491 343L491 427L573 427L573 403L655 403L655 379L736 379L736 289L818 289L818 325L900 325L900 313L900 137L900 215L818 215L818 119L736 119L736 119L655 119L655 209L573 209L573 149L491 149L491 119L409 119L409 71L327 71L327 119L245 119L245 167L164 167L164 167L82 167L82 179L0 179Z" fill="#6e48c1"></path><path d="M0 409L82 409L82 409L164 409L164 415L245 415L245 391L327 391L327 337L409 337L409 391L491 391L491 487L573 487L573 457L655 457L655 445L736 445L736 373L818 373L818 397L900 397L900 397L900 311L900 323L818 323L818 287L736 287L736 377L655 377L655 401L573 401L573 425L491 425L491 341L409 341L409 287L327 287L327 305L245 305L245 359L164 359L164 329L82 329L82 311L0 311Z" fill="#6f53c5"></path><path d="M0 481L82 481L82 451L164 451L164 463L245 463L245 463L327 463L327 457L409 457L409 505L491 505L491 541L573 541L573 535L655 535L655 505L736 505L736 487L818 487L818 493L900 493L900 469L900 395L900 395L818 395L818 371L736 371L736 443L655 443L655 455L573 455L573 485L491 485L491 389L409 389L409 335L327 335L327 389L245 389L245 413L164 413L164 407L82 407L82 407L0 407Z" fill="#705dc8"></path><path d="M0 601L82 601L82 601L164 601L164 601L245 601L245 601L327 601L327 601L409 601L409 601L491 601L491 601L573 601L573 601L655 601L655 601L736 601L736 601L818 601L818 601L900 601L900 601L900 467L900 491L818 491L818 485L736 485L736 503L655 503L655 533L573 533L573 539L491 539L491 503L409 503L409 455L327 455L327 461L245 461L245 461L164 461L164 449L82 449L82 479L0 479Z" fill="#7267cb"></path></svg>